<?xml version="1.0" standalone="no"?>
<!DOCTYPE svg PUBLIC "-//W3C//DTD SVG 1.1//EN" "http://www.w3.org/Graphics/SVG/1.1/DTD/svg11.dtd" >
<svg xmlns="http://www.w3.org/2000/svg" xmlns:xlink="http://www.w3.org/1999/xlink" version="1.1">
<metadata></metadata>
<defs>
<font id="dejavu_sans_monobold" horiz-adv-x="1233" >
<font-face units-per-em="2048" ascent="1556" descent="-492" />
<missing-glyph horiz-adv-x="500" />
<glyph horiz-adv-x="0" />
<glyph unicode="&#xd;" />
<glyph unicode=" " />
<glyph unicode="!" d="M483 0v283h267v-283h-267zM483 838v655h267v-655l-33 -357h-199z" />
<glyph unicode="&#x22;" d="M231 938v555h256v-555h-256zM743 938v555h256v-555h-256z" />
<glyph unicode="#" d="M2 373v215h260l74 293h-219v215h274l94 374h222l-95 -374h203l94 374h224l-97 -374h193v-215h-246l-74 -293h205v-215h-258l-94 -373h-221l94 373h-205l-94 -373h-221l94 373h-207zM483 588h205l74 293h-205z" />
<glyph unicode="$" d="M164 942q0 167 102 266t287 111v237h141l1 -237q71 -4 147.5 -18t156.5 -39v-256q-62 40 -138 64t-167 30v-307q197 -31 297.5 -134.5t100.5 -275.5q0 -164 -108.5 -269t-288.5 -114l-1 -301h-141l-1 301q-87 3 -182 26t-198 66v262q103 -61 199.5 -94t181.5 -34v329 q-197 39 -293 134.5t-96 252.5zM428 967q0 -57 31.5 -95t93.5 -55v283q-62 -8 -93.5 -41.5t-31.5 -91.5zM694 226q63 9 98 48.5t35 100.5q0 62 -34.5 101.5t-98.5 51.5v-302z" />
<glyph unicode="%" d="M33 1112q0 134 93 227t226 93t226.5 -93.5t93.5 -226.5t-93.5 -226t-226.5 -93t-226 92.5t-93 226.5zM86 561l1042 418l41 -96l-1048 -418zM215 1112q0 -58 40 -97.5t97 -39.5q58 0 97.5 39.5t39.5 97.5q0 57 -40 97t-97 40t-97 -39.5t-40 -97.5zM580 319q0 134 92.5 227 t226.5 93q132 0 226 -93.5t94 -226.5q0 -132 -94 -225.5t-226 -93.5q-134 0 -226.5 92.5t-92.5 226.5zM762 319q0 -58 39 -97.5t96 -39.5q58 0 98.5 40t40.5 97t-41 97.5t-98 40.5q-56 0 -95.5 -40t-39.5 -98z" />
<glyph unicode="&#x26;" d="M37 442q0 145 70.5 264t209.5 207q-50 78 -74 144.5t-24 126.5q0 162 109 249t315 87q73 0 143 -11t138 -32v-256q-64 36 -129.5 54.5t-130.5 18.5q-80 0 -121 -28t-41 -82q0 -36 30.5 -99t98.5 -165l313 -480q21 38 32 87t11 106q0 30 -2 58.5t-6 53.5h235v-51 q0 -145 -34 -253.5t-107 -194.5l162 -246h-317l-48 72q-75 -50 -159.5 -75.5t-171.5 -25.5q-224 0 -363 131t-139 340zM307 496q0 -122 78.5 -205.5t192.5 -83.5q28 0 57.5 6.5t57.5 18.5l8 4q29 14 47 26l-308 469q-66 -43 -99.5 -102.5t-33.5 -132.5z" />
<glyph unicode="'" d="M487 938v555h256v-555h-256z" />
<glyph unicode="(" d="M383 643q0 232 77.5 457.5t235.5 453.5h228q-132 -239 -196 -463t-64 -448q0 -222 64 -447.5t196 -465.5h-228q-159 231 -236 455.5t-77 457.5z" />
<glyph unicode=")" d="M309 -270q132 240 196 465.5t64 447.5q0 224 -64 448t-196 463h228q158 -228 235.5 -453.5t77.5 -457.5q0 -233 -77 -457.5t-236 -455.5h-228z" />
<glyph unicode="*" d="M121 870l332 174l-332 173l76 141l331 -182v344h172v-344l332 182l76 -141l-330 -173l330 -174l-76 -141l-332 184v-344h-172v344l-331 -184z" />
<glyph unicode="+" d="M66 524v238h432v430h237v-430h430v-238h-430v-432h-237v432h-432z" />
<glyph unicode="," d="M362 -287l99 383v271h313v-271l-196 -383h-216z" />
<glyph unicode="-" d="M301 444v291h631v-291h-631z" />
<glyph unicode="." d="M449 0v367h333v-367h-333z" />
<glyph unicode="/" d="M113 -190l786 1683h221l-786 -1683h-221z" />
<glyph unicode="0" d="M123 745q0 388 123 581.5t370 193.5q248 0 371 -193t123 -582q0 -388 -123 -581t-371 -193q-247 0 -370 193.5t-123 580.5zM420 745q0 -274 47 -399t149 -125q103 0 150 125t47 399q0 275 -47 400t-150 125q-102 0 -149 -125t-47 -400zM492 745q0 53 36 89t88 36 q53 0 89 -36t36 -89q0 -52 -36 -88t-89 -36q-52 0 -88 35.5t-36 88.5z" />
<glyph unicode="1" d="M188 0v260h330v969l-307 -76v266l309 74h285v-1233h330v-260h-947z" />
<glyph unicode="2" d="M115 0v252l160 170q285 303 346 373q75 86 108 152.5t33 131.5q0 100 -60.5 154.5t-171.5 54.5q-79 0 -177.5 -31.5t-205.5 -91.5v275q107 39 209.5 59.5t196.5 20.5q237 0 372.5 -110.5t135.5 -301.5q0 -88 -29.5 -165t-101.5 -171q-53 -68 -291 -306 q-129 -129 -205 -206h629v-260h-948z" />
<glyph unicode="3" d="M125 45v274q94 -47 203 -71.5t229 -24.5t190 55.5t70 149.5q0 115 -70 177.5t-198 62.5h-158v260h158q110 0 170.5 43.5t60.5 122.5q0 83 -60.5 129.5t-170.5 46.5q-84 0 -180 -21t-199 -61v268q103 31 203 47.5t192 16.5q236 0 368 -103t132 -284q0 -133 -76 -217.5 t-217 -110.5q160 -28 244 -127.5t84 -261.5q0 -217 -139 -331t-404 -114q-113 0 -222.5 19t-209.5 55z" />
<glyph unicode="4" d="M102 322v286l566 885h309v-918h164v-253h-164v-322h-283v322h-592zM317 575h377v590z" />
<glyph unicode="5" d="M143 35v266q83 -41 170.5 -61.5t175.5 -20.5q156 0 237 66.5t81 193.5q0 117 -80.5 187.5t-214.5 70.5q-79 0 -158.5 -19.5t-160.5 -58.5v834h811v-260h-572v-277q36 14 77 20.5t87 6.5q222 0 360 -140t138 -364q0 -235 -149.5 -371.5t-407.5 -136.5q-96 0 -194 16 t-200 48z" />
<glyph unicode="6" d="M131 743q0 388 151 581.5t453 193.5q70 0 144.5 -15t150.5 -45v-268q-79 45 -151.5 67.5t-139.5 22.5q-160 0 -243.5 -107.5t-87.5 -317.5q47 65 120 97.5t172 32.5q202 0 312 -127.5t110 -361.5q0 -251 -123.5 -389t-347.5 -138q-273 0 -396.5 183t-123.5 591zM446 477 q0 -131 50.5 -200.5t146.5 -69.5t147.5 69.5t51.5 200.5t-51.5 201t-147.5 70t-146.5 -69.5t-50.5 -201.5z" />
<glyph unicode="7" d="M135 1233v260h944v-209l-506 -1284h-301l486 1233h-623z" />
<glyph unicode="8" d="M129 420q0 138 71 236t197 135q-113 39 -172 122.5t-59 204.5q0 186 121 294t329 108q209 0 330 -108t121 -294q0 -120 -58 -203.5t-169 -123.5q124 -38 194 -136t70 -235q0 -215 -127 -332t-361 -117q-233 0 -360 117t-127 332zM395 438q0 -103 61 -166t160 -63 t160.5 64t61.5 165q0 103 -61 165.5t-161 62.5q-99 0 -160 -62.5t-61 -165.5zM428 1094q0 -88 50.5 -139.5t137.5 -51.5q88 0 138.5 51.5t50.5 139.5q0 87 -50.5 137.5t-138.5 50.5q-86 0 -137 -51t-51 -137z" />
<glyph unicode="9" d="M111 983q0 250 123 387t348 137q273 0 396.5 -182.5t123.5 -589.5q0 -387 -151 -580.5t-453 -193.5q-70 0 -144.5 15t-150.5 44v269q79 -46 151.5 -68t139.5 -22q159 0 242.5 106.5t88.5 318.5q-47 -65 -120 -97.5t-173 -32.5q-201 0 -311 127.5t-110 361.5zM391 1012 q0 -131 51.5 -201t147.5 -70q95 0 145.5 69.5t50.5 201.5q0 131 -50.5 200.5t-145.5 69.5q-96 0 -147.5 -69.5t-51.5 -200.5z" />
<glyph unicode=":" d="M449 0v367h333v-367h-333zM449 698v365h333v-365h-333z" />
<glyph unicode=";" d="M371 -287l78 383v271h333v-271l-196 -383h-215zM449 698v365h333v-365h-333z" />
<glyph unicode="&#x3c;" d="M88 524v236l1057 416v-250l-795 -285l795 -283v-249z" />
<glyph unicode="=" d="M88 295v237h1057v-237h-1057zM88 752v235h1057v-235h-1057z" />
<glyph unicode="&#x3e;" d="M88 109v249l795 283l-795 285v250l1057 -416v-236z" />
<glyph unicode="?" d="M233 1139v268q98 56 198.5 84.5t201.5 28.5q202 0 317 -94t115 -259q0 -76 -34 -141.5t-128 -157.5l-88 -86q-68 -66 -87 -108t-19 -103q0 -9 -0.5 -21t-1.5 -26v-123h-267v154q0 99 31 169t111 148l90 89q63 61 85.5 101t22.5 83q0 67 -46 101t-138 34 q-84 0 -175.5 -35.5t-187.5 -105.5zM440 0v283h267v-283h-267z" />
<glyph unicode="@" d="M6 543q0 387 187 619.5t495 232.5q218 0 344.5 -131.5t126.5 -358.5v-770h-196v82q-38 -53 -89.5 -77.5t-123.5 -24.5q-164 0 -264.5 118t-100.5 312q0 193 100 310.5t265 117.5q71 0 125 -24.5t88 -71.5v41q0 136 -74.5 210t-212.5 74q-208 0 -339.5 -183t-131.5 -476 q0 -307 152 -488.5t405 -181.5q80 0 155 23.5t144 70.5l92 -176q-81 -55 -176.5 -82.5t-204.5 -27.5q-350 0 -558 233t-208 629zM592 545q0 -114 50.5 -178t139.5 -64t140 64t51 178q0 113 -51 177t-140 64t-139.5 -64t-50.5 -177z" />
<glyph unicode="A" d="M33 0l403 1493h361l403 -1493h-295l-92 369h-395l-90 -369h-295zM477 612h279l-140 611z" />
<glyph unicode="B" d="M125 0v1495h481q249 0 374.5 -94.5t125.5 -282.5q0 -144 -74 -225t-217 -94q171 -17 257.5 -115t86.5 -274q0 -216 -130 -313t-423 -97h-481zM410 236h196q141 0 197.5 48t56.5 167q0 121 -59 174t-195 53h-196v-442zM410 913h196q112 0 159.5 40t47.5 132t-48.5 133.5 t-158.5 41.5h-196v-347z" />
<glyph unicode="C" d="M152 745q0 377 159 576t461 199q85 0 163 -18t146 -54v-328q-76 70 -147.5 102.5t-147.5 32.5q-162 0 -244.5 -128.5t-82.5 -381.5q0 -252 82.5 -380.5t244.5 -128.5q76 0 147.5 32.5t147.5 102.5v-328q-70 -36 -147 -54t-162 -18q-302 0 -461 199t-159 575z" />
<glyph unicode="D" d="M137 0v1493h316q366 0 527 -174.5t161 -570.5q0 -397 -161 -572.5t-527 -175.5h-316zM432 266h80q174 0 248 109.5t74 372.5q0 261 -74 370t-248 109h-80v-961z" />
<glyph unicode="E" d="M168 0v1493h930v-260h-635v-322h575v-260h-575v-391h635v-260h-930z" />
<glyph unicode="F" d="M182 0v1493h930v-260h-635v-322h578v-260h-578v-651h-295z" />
<glyph unicode="G" d="M117 745q0 377 159.5 576t460.5 199q90 0 177 -25.5t163 -73.5v-327q-62 80 -142.5 120.5t-176.5 40.5q-168 0 -251 -126.5t-83 -383.5q0 -249 80 -379t233 -130q46 0 80 8.5t55 25.5v285h-202v248h460v-684q-85 -73 -187.5 -110.5t-219.5 -37.5q-290 0 -448 201.5 t-158 572.5z" />
<glyph unicode="H" d="M137 0v1493h295v-569h369v569h295v-1493h-295v664h-369v-664h-295z" />
<glyph unicode="I" d="M172 0v260h297v973h-297v260h889v-260h-297v-973h297v-260h-889z" />
<glyph unicode="J" d="M109 74v342q86 -88 183.5 -134t196.5 -46q116 0 170 58t54 185v754h-361v260h656v-1014q0 -273 -114.5 -390.5t-377.5 -117.5q-95 0 -198.5 26t-208.5 77z" />
<glyph unicode="K" d="M117 0v1493h295v-590l462 590h334l-471 -588l488 -905h-328l-354 672l-131 -166v-506h-295z" />
<glyph unicode="L" d="M225 0v1493h295v-1233h631v-260h-926z" />
<glyph unicode="M" d="M86 0v1493h352l178 -655l177 655h354v-1493h-254v1196l-158 -653h-235l-160 653v-1196h-254z" />
<glyph unicode="N" d="M119 0v1493h317l416 -1085v1085h260v-1493h-315l-418 1085v-1085h-260z" />
<glyph unicode="O" d="M92 745q0 383 132.5 579t391.5 196q260 0 392.5 -196t132.5 -579q0 -382 -132.5 -578t-392.5 -196q-259 0 -391.5 196t-132.5 578zM399 745q0 -268 52 -388.5t165 -120.5q114 0 166 120.5t52 388.5q0 269 -52 389.5t-166 120.5q-113 0 -165 -120.5t-52 -389.5z" />
<glyph unicode="P" d="M162 0v1493h405q309 0 444.5 -110t135.5 -357t-135.5 -357t-444.5 -110h-110v-559h-295zM457 807h121q145 0 203.5 49t58.5 170t-58.5 170t-203.5 49h-121v-438z" />
<glyph unicode="Q" d="M92 745q0 383 132.5 579t391.5 196q260 0 392.5 -196t132.5 -579q0 -263 -63 -440.5t-183 -253.5l186 -182l-202 -150l-223 258q-14 -3 -23.5 -4.5t-18.5 -1.5q-257 0 -389.5 196t-132.5 578zM399 745q0 -268 52 -388.5t165 -120.5q114 0 166 120.5t52 388.5 q0 269 -52 389.5t-166 120.5q-113 0 -165 -120.5t-52 -389.5z" />
<glyph unicode="R" d="M133 0v1493h426q288 0 413.5 -102t125.5 -332q0 -154 -75 -245t-216 -109q44 -9 76.5 -41.5t79.5 -126.5l270 -537h-324l-180 377q-8 16 -21 44q-79 169 -186 169h-94v-590h-295zM428 838h139q121 0 173.5 47.5t52.5 156.5t-52 156t-174 47h-139v-407z" />
<glyph unicode="S" d="M129 1085q0 203 130 319t357 116q103 0 206 -23.5t204 -69.5v-288q-95 67 -193 102t-194 35q-107 0 -164 -43t-57 -123q0 -62 41.5 -102.5t173.5 -89.5l127 -48q180 -66 265 -175t85 -275q0 -226 -133.5 -337.5t-403.5 -111.5q-111 0 -222.5 26.5t-215.5 78.5v305 q118 -84 228.5 -125t218.5 -41q109 0 169 49.5t60 138.5q0 67 -40 117.5t-116 79.5l-145 55q-223 85 -302 178.5t-79 251.5z" />
<glyph unicode="T" d="M90 1235v258h1053v-258h-379v-1235h-295v1235h-379z" />
<glyph unicode="U" d="M106 551v942h295v-1016q0 -112 57 -175.5t158 -63.5t158 63.5t57 175.5v1016h295v-942q0 -304 -121 -442t-389 -138q-267 0 -388.5 138t-121.5 442z" />
<glyph unicode="V" d="M57 1493h297l262 -1247l263 1247h297l-355 -1493h-409z" />
<glyph unicode="W" d="M0 1493h258l107 -1096l129 709h245l150 -709l84 1096h260l-172 -1493h-275l-170 784l-159 -784h-273z" />
<glyph unicode="X" d="M27 0l438 758l-426 735h305l272 -475l273 475h305l-424 -735l436 -758h-305l-285 494l-284 -494h-305z" />
<glyph unicode="Y" d="M8 1493h318l290 -600l291 600h318l-461 -905v-588h-295v588z" />
<glyph unicode="Z" d="M115 0v244l671 989h-649v260h1010v-244l-692 -989h706v-260h-1046z" />
<glyph unicode="[" d="M422 -270v1826h508v-190h-242v-1446h242v-190h-508z" />
<glyph unicode="\" d="M111 1493h223l786 -1683h-223z" />
<glyph unicode="]" d="M303 -80h242v1446h-242v190h508v-1826h-508v190z" />
<glyph unicode="^" d="M57 936l437 557h245l437 -557h-242l-318 301l-317 -301h-242z" />
<glyph unicode="_" d="M0 -293h1233v-190h-1233v190z" />
<glyph unicode="`" d="M199 1638h282l283 -376h-197z" />
<glyph unicode="a" d="M94 354q0 196 127 289.5t393 93.5h203v49q0 71 -51.5 107.5t-151.5 36.5q-105 0 -203.5 -26.5t-205.5 -84.5v250q97 40 197 59t212 19q273 0 383.5 -111t110.5 -397v-639h-291v125q-53 -74 -136 -114t-183 -40q-191 0 -297.5 101t-106.5 282zM406 340q0 -76 45 -121 t122 -45q116 0 180 87.5t64 244.5v20h-117q-164 0 -229 -42t-65 -144z" />
<glyph unicode="b" d="M150 0v1556h292v-595q54 93 125.5 139.5t161.5 46.5q199 0 306.5 -152t107.5 -436q0 -280 -106 -434t-298 -154q-101 0 -176 49t-121 146v-166h-292zM442 557q0 -162 55 -254t150 -92t149 92t54 254t-54 254t-149 92t-150 -92t-55 -254z" />
<glyph unicode="c" d="M168 559q0 277 147 433.5t406 156.5q90 0 173.5 -21t166.5 -65v-268q-64 55 -140.5 84.5t-158.5 29.5q-143 0 -220 -91t-77 -259t77 -258t220 -90q85 0 159 28.5t140 86.5v-269q-74 -43 -159 -64.5t-183 -21.5q-259 0 -405 156t-146 432z" />
<glyph unicode="d" d="M90 559q0 284 107.5 436t306.5 152q90 0 161.5 -46.5t125.5 -139.5v595h292v-1556h-292v166q-47 -97 -121.5 -146t-175.5 -49q-192 0 -298 154t-106 434zM383 557q0 -162 54 -254t149 -92t150 92t55 254t-55 254t-150 92t-149 -92t-54 -254z" />
<glyph unicode="e" d="M92 555q0 274 143 433t390 159q249 0 386.5 -147.5t137.5 -415.5v-119h-759q1 -132 78 -197t230 -65q101 0 199 29t205 92v-269q-102 -42 -208 -63t-224 -21q-281 0 -429.5 150.5t-148.5 433.5zM393 684l461 1q-2 116 -59.5 175.5t-169.5 59.5q-101 0 -161 -61.5 t-71 -174.5z" />
<glyph unicode="f" d="M174 895v225h272v78q0 202 84 280t312 78h241v-225h-229q-66 0 -89.5 -24t-25.5 -89v-98h344v-225h-344v-895h-293v895h-272z" />
<glyph unicode="g" d="M98 571q0 266 113 422t303 156q96 0 171 -45t118 -127v143h293v-1036q0 -269 -121.5 -388.5t-394.5 -119.5q-92 0 -182 13.5t-183 41.5v269q83 -46 169 -68t177 -22q124 0 183 58.5t59 182.5v121q-43 -80 -114 -119t-173 -39q-192 0 -305 150t-113 407zM391 578 q0 -152 56.5 -242t148.5 -90q93 0 150 90.5t57 241.5q0 150 -57 240.5t-150 90.5q-92 0 -148.5 -90t-56.5 -241z" />
<glyph unicode="h" d="M172 0v1556h291v-604q31 93 106 144t181 51q159 0 240 -105.5t81 -314.5v-727h-291v682q0 121 -34.5 173t-112.5 52q-80 0 -125 -70.5t-45 -195.5v-641h-291z" />
<glyph unicode="i" d="M143 0v225h365v670h-287v225h580v-895h364v-225h-1022zM508 1323v342h293v-342h-293z" />
<glyph unicode="j" d="M143 -199h234q98 0 139 55t41 187v852h-297v225h590v-1077q0 -252 -90.5 -359.5t-300.5 -107.5h-316v225zM557 1323v342h293v-342h-293z" />
<glyph unicode="k" d="M174 0v1556h293v-817l352 381h355l-424 -418l448 -702h-324l-307 524l-100 -96v-428h-293z" />
<glyph unicode="l" d="M90 1331v225h590v-1089q0 -132 41 -187t139 -55h234v-225h-316q-209 0 -300 108t-91 359v864h-297z" />
<glyph unicode="m" d="M82 0v1120h213v-116q25 66 80 104.5t123 38.5t124 -40.5t68 -98.5q33 71 84 105t125 34q145 0 200.5 -100t55.5 -416v-631h-240v719q0 125 -19 167t-69 42t-70 -43t-20 -166v-719h-237v719q0 123 -20 166t-70 43t-69 -42t-19 -167v-719h-240z" />
<glyph unicode="n" d="M172 0v1120h291v-168q31 93 106 144t181 51q159 0 240 -105.5t81 -314.5v-727h-291v682q0 122 -34.5 174.5t-112.5 52.5q-79 0 -124.5 -71t-45.5 -197v-641h-291z" />
<glyph unicode="o" d="M98 559q0 271 140.5 429.5t377.5 158.5q238 0 378.5 -158.5t140.5 -429.5t-140.5 -429.5t-378.5 -158.5q-237 0 -377.5 158.5t-140.5 429.5zM391 559q0 -165 60 -257.5t165 -92.5q106 0 166 92.5t60 257.5t-60 257.5t-166 92.5q-105 0 -165 -92.5t-60 -257.5z" />
<glyph unicode="p" d="M150 -426v1546h292v-168q46 97 121 146t176 49q192 0 298 -154t106 -434q0 -284 -107.5 -436t-306.5 -152q-90 0 -161.5 46.5t-125.5 140.5v-584h-292zM442 561q0 -162 55 -254t150 -92t149 92t54 254t-54 254t-149 92t-150 -92t-55 -254z" />
<glyph unicode="q" d="M90 559q0 280 106 434t298 154q101 0 175.5 -49t121.5 -146v168h292v-1546h-292v584q-54 -94 -125.5 -140.5t-161.5 -46.5q-199 0 -306.5 152t-107.5 436zM383 561q0 -162 54 -254t149 -92t150 92t55 254t-55 254t-150 92t-149 -92t-54 -254z" />
<glyph unicode="r" d="M291 0v1120h293v-174q43 96 132 148.5t208 52.5q60 0 117.5 -14.5t109.5 -42.5v-279q-48 44 -112.5 66t-141.5 22q-93 0 -162.5 -32.5t-107.5 -94.5q-24 -38 -33.5 -92t-9.5 -164v-516h-293z" />
<glyph unicode="s" d="M172 805q0 162 117 252t329 90q95 0 189.5 -15.5t183.5 -46.5v-256q-81 52 -168.5 78.5t-175.5 26.5q-98 0 -148 -28.5t-50 -84.5q0 -80 214 -130l11 -3l84 -20q160 -38 234.5 -122.5t74.5 -228.5q0 -173 -113.5 -259.5t-341.5 -86.5q-101 0 -207 17.5t-215 52.5v256 q97 -55 197.5 -84t194.5 -29q103 0 156 30t53 87q0 56 -37.5 86t-178.5 64l-81 18q-168 38 -245 119t-77 217z" />
<glyph unicode="t" d="M111 895v225h286v318h293v-318h383v-225h-383v-530q0 -75 36.5 -107.5t121.5 -32.5h225v-225h-246q-252 0 -341 80.5t-89 298.5v516h-286z" />
<glyph unicode="u" d="M160 391v729h293v-684q0 -121 34 -173t113 -52t123.5 70t44.5 196v643h293v-1120h-293v166q-31 -93 -105.5 -144t-179.5 -51q-160 0 -241.5 106t-81.5 314z" />
<glyph unicode="v" d="M80 1120h297l239 -874l240 874h297l-356 -1120h-361z" />
<glyph unicode="w" d="M0 1120h244l133 -858l121 565h237l119 -565l135 858h244l-203 -1120h-278l-136 582l-135 -582h-278z" />
<glyph unicode="x" d="M55 0l414 584l-381 536h342l186 -334l187 334h342l-377 -536l410 -584h-342l-220 377l-219 -377h-342z" />
<glyph unicode="y" d="M59 1120h308l256 -727l245 727h308l-465 -1241q-59 -158 -141.5 -230.5t-200.5 -72.5h-242v223h119q90 0 132 30.5t85 141.5l22 60z" />
<glyph unicode="z" d="M162 0v229l590 672h-566v219h895v-229l-589 -672h589v-219h-919z" />
<glyph unicode="{" d="M176 516v191h62q140 0 193.5 57t53.5 209v215q0 221 84.5 294.5t333.5 73.5h150v-190h-123q-104 0 -139 -42t-35 -185v-209q0 -165 -49 -232t-175 -86q126 -21 175 -89t49 -232v-205q0 -144 35 -186.5t139 -42.5h123v-191h-150q-249 0 -333.5 74t-84.5 295v215 q0 151 -53.5 208.5t-193.5 57.5h-62z" />
<glyph unicode="|" d="M502 -483v2048h227v-2048h-227z" />
<glyph unicode="}" d="M180 -143h121q104 0 140 43t36 186v205q0 164 49 232t174 89q-126 19 -174.5 86t-48.5 232v209q0 141 -35.5 184t-140.5 43h-121v190h150q248 0 331.5 -73.5t83.5 -294.5v-215q0 -151 54.5 -208.5t195.5 -57.5h62v-191h-62q-141 0 -195.5 -58t-54.5 -208v-215 q0 -221 -83.5 -295t-331.5 -74h-150v191z" />
<glyph unicode="~" d="M88 465v229q78 61 151 88t156 27q53 0 103 -11t124 -42l33 -15q116 -55 209 -55q70 0 139 30.5t142 94.5v-233q-75 -60 -146.5 -87.5t-150.5 -27.5q-90 0 -203 51q-22 10 -33 14q-77 34 -128.5 46t-102.5 12q-78 0 -148.5 -29t-144.5 -92z" />
<glyph unicode="&#xa0;" />
<glyph unicode="&#xa2;" d="M147 561q0 255 136.5 411.5t371.5 172.5v287h142v-287q61 -5 119.5 -21.5t119.5 -46.5v-268q-56 42 -116 66.5t-123 31.5v-692q64 5 123.5 29t115.5 67v-268q-52 -29 -112 -46t-127 -22v-288h-142v288q-235 22 -371.5 179t-136.5 407zM418 561q0 -155 63 -247.5 t174 -98.5v692q-114 -14 -175.5 -103.5t-61.5 -242.5z" />
<glyph unicode="&#xa3;" d="M119 0v260h235v334h-198v225h198v197q0 256 112.5 380t344.5 124q83 0 154 -14.5t137 -43.5v-274q-57 41 -122 62.5t-134 21.5q-106 0 -155.5 -66.5t-49.5 -210.5v-176h336v-225h-336v-334h481v-260h-1003z" />
<glyph unicode="&#xa5;" d="M8 1493h318l290 -600l291 600h318l-273 -528h224v-187h-322l-86 -151h408v-189h-412v-438h-295v438h-412v189h408l-86 151h-322v187h224z" />
<glyph unicode="&#xa7;" d="M170 688q0 94 52 163.5t149 102.5q-71 50 -103 110t-32 142q0 142 104 228t276 86q74 0 152.5 -15t161.5 -45v-225q-85 30 -151 44.5t-120 14.5q-76 0 -118.5 -29t-42.5 -81q0 -75 203 -180q19 -10 28 -15q214 -110 273 -180.5t59 -171.5q0 -89 -47.5 -153t-149.5 -111 q70 -50 102.5 -111.5t32.5 -142.5q0 -147 -104.5 -230.5t-290.5 -83.5q-89 0 -175 14.5t-171 43.5v229q85 -30 166 -45.5t154 -15.5q77 0 118 28.5t41 81.5q0 70 -214 185l-11 6l-26 14q-316 170 -316 342zM414 711q0 -54 48.5 -98t248.5 -140q55 36 79.5 70.5t24.5 77.5 q0 81 -265 219l-32 16q-55 -36 -79.5 -70.5t-24.5 -74.5z" />
<glyph unicode="&#xa9;" d="M0 741q0 126 46 236t136 201q90 90 199 135t235 45q127 0 236 -45t199 -135q90 -91 136 -201t46 -236q0 -125 -45.5 -234t-136.5 -200t-200 -136.5t-235 -45.5q-125 0 -234 45.5t-200 136.5t-136.5 200t-45.5 234zM131 741q0 -98 36 -183t107 -157t157 -108.5t185 -36.5 q100 0 186 36.5t156 108.5q72 72 108 157t36 183q0 101 -36 187t-108 157q-72 73 -156.5 108.5t-185.5 35.5q-99 0 -184 -35.5t-158 -108.5q-71 -71 -107 -157t-36 -187zM266 741q0 156 101 249t270 93q55 0 107.5 -8.5t103.5 -25.5v-168q-52 31 -97.5 45t-93.5 14 q-97 0 -150.5 -52t-53.5 -147t53 -146.5t151 -51.5q53 0 101 14.5t90 44.5v-168q-55 -17 -108 -26t-103 -9q-169 0 -270 93.5t-101 248.5z" />
<glyph unicode="&#xad;" d="M301 444v291h631v-291h-631z" />
<glyph unicode="&#xae;" d="M0 741q0 126 46 236t136 201q90 90 199 135t235 45q127 0 236 -45t199 -135q90 -91 136 -201t46 -236q0 -125 -45.5 -234t-136.5 -200t-200 -136.5t-235 -45.5q-125 0 -234 45.5t-200 136.5t-136.5 200t-45.5 234zM131 741q0 -98 36 -183t107 -159q72 -71 157.5 -107 t184.5 -36t185 36t157 107q72 74 108 159t36 183q0 101 -36 187t-108 157q-72 73 -156.5 108.5t-185.5 35.5q-99 0 -184 -35.5t-158 -108.5q-71 -71 -107 -157t-36 -187zM360 430v625h246q133 0 197.5 -44t64.5 -134q0 -65 -39 -107.5t-110 -54.5q38 -14 65.5 -42t51.5 -77 l79 -166h-172l-63 133q-27 58 -55.5 81.5t-69.5 25.5h-31v-240h-164zM524 780h64q57 0 85.5 20t28.5 60q0 43 -28 63.5t-86 20.5h-64v-164z" />
<glyph unicode="&#xb0;" d="M283 1186q0 141 96 237.5t237 96.5q67 0 128 -25.5t108 -73.5q47 -47 71.5 -107t24.5 -128q0 -66 -25 -127t-71 -107q-48 -47 -109 -72.5t-129 -25.5q-141 0 -236 95t-95 237zM444 1186q0 -72 49 -121t121 -49t122 49.5t50 120.5q0 72 -49.5 122t-120.5 50 q-72 0 -122 -50t-50 -122z" />
<glyph unicode="&#xb6;" d="M70 1071q0 190 130 306t345 116h520v-1690h-191v1543h-190v-1543h-188v846q-205 25 -315.5 134.5t-110.5 287.5z" />
<glyph unicode="&#xb7;" d="M449 530v365h333v-365h-333z" />
<glyph unicode="&#x192;" d="M91 -199h234q99 0 139 55q41 56 41 187v852h-272v225h272v78q0 202 84 280t312 78h241v-225h-229q-111 1 -115 -113v-98h344v-225h-344v-895q-6 -217 -90 -316q-92 -108 -301 -108h-316v225z" />
<glyph unicode="&#x10d0;" d="M98 469q0 54 22.5 100t62.5 90l247 -34q-17 -26 -27.5 -62t-10.5 -73q0 -138 60 -207t165 -69q107 0 166 65.5t59 206.5q0 93 -44.5 153t-119.5 88h1q-166 56 -239.5 165t-74.5 270h262q1 -87 33 -137.5t76 -66.5l-1 1q402 -140 402 -454q-1 -254 -130.5 -379.5 t-391.5 -125.5q-257 0 -387 116t-130 353z" />
<glyph unicode="&#x10d1;" d="M100 535q2 214 103 345.5t294 182.5v105q1 42 -32.5 67.5t-89.5 35.5q-189 33 -189 281h300q0 -95 84 -112q102 -35 147.5 -101.5t45.5 -164.5v-115q183 -66 277 -196t94 -329q0 -534 -521 -534q-510 0 -513 535zM391 535q0 -80 15.5 -140.5t44 -100.5t69.5 -60t92 -20 q213 0 213 321q1 83 -12 148.5t-39 110.5t-66 69t-93 24q-52 -1 -93.5 -25t-71 -69t-44.5 -110t-15 -148z" />
<glyph unicode="&#x10d2;" d="M80 79q2 463 542 478q22 9 41.5 23t33.5 37.5t21.5 57.5t7.5 84q0 24 -15.5 41.5t-41 29.5t-58.5 17.5t-69 5.5q-29 0 -57 -5.5t-50 -17t-35 -28.5t-13 -40l9 -47l-166 -129q-19 25 -32 47.5t-20.5 45t-11 46t-3.5 51.5q0 290 390 290q432 0 430 -316q0 -75 -23.5 -133 t-77.5 -105q270 -126 269 -433q0 -481 -533 -481q-538 0 -538 481zM364 79q0 -131 62.5 -198t188.5 -66q253 -1 253 264q0 266 -247 267q-256 0 -257 -267z" />
<glyph unicode="&#x10d3;" d="M27 580q0 235 95.5 355.5t287.5 120.5q93 0 168 -69q75 69 228 69q99 0 174 -25.5t125 -80t75.5 -140.5t25.5 -206v-129q0 -129 -24 -219.5t-72.5 -147.5t-121 -83t-168.5 -26q-64 0 -114.5 19t-90 51t-67.5 73.5t-46 86.5t-26.5 90.5t-8.5 84.5l1 410q-1 12 -9 20.5 t-25 8.5h-67q-14 0 -27.5 -9t-24.5 -24.5t-17.5 -36t-6.5 -43.5v-374q0 -103 30.5 -176t80 -125.5t113 -89t129.5 -66t129.5 -56.5t113 -60t80 -77.5t30.5 -108.5h-300q0 23 -17 45.5t-45 42t-64 35t-73.5 24t-74 9t-66 -9.5t-48.5 -31.5t-22 -56.5l-164 116q7 16 19 39 t28 45t35.5 39.5t41.5 22.5q-65 67 -107 140t-67.5 154.5t-35.5 172.5t-10 196zM696 510q0 -57 3 -110.5t14 -95t32.5 -66.5t58.5 -25q33 0 59 17t43 47.5t26 73t9 93.5v177q0 56 -14 97.5t-32.5 69.5t-38 41.5t-30.5 13.5h-97q-15 0 -24 -9.5t-9 -26.5v-297z" />
<glyph unicode="&#x10d4;" d="M97 17q0 74 42.5 138.5t123.5 135.5l178 -95q-15 -28 -25 -49t-15 -41.5t-7 -41.5t-2 -49q0 -106 64 -156t179 -50q103 0 155 47.5t52 143.5v639q0 109 -51 162t-151 53q-88 0 -139 -40.5t-51 -127.5q0 -56 5.5 -91t21.5 -69l-214 -90q-28 34 -45.5 61.5t-27.5 54.5 t-14 56.5t-4 69.5q0 389 467 388q495 0 497 -429v-629q-2 -410 -501 -410q-538 0 -538 419z" />
<glyph unicode="&#x10d5;" d="M98 22q0 24 5.5 54.5t16.5 63t27.5 64t39.5 57.5l238 -83q-22 -38 -27.5 -78t-5.5 -75q0 -108 60 -162t163 -54q109 0 168 42.5t59 130.5v92q0 88 -49.5 130.5t-137.5 42.5h-63v209h63q41 0 75.5 10.5t59 34t38.5 59.5t14 86q0 51 -15 89.5t-42 65t-64.5 40t-83.5 13.5 q-96 0 -152.5 -37.5t-57.5 -115.5q1 -39 7.5 -65t22.5 -55l-208 -98q-20 17 -39.5 41t-34.5 52.5t-24.5 60.5t-9.5 64q0 365 494 365t494 -416q0 -96 -47.5 -169.5t-141.5 -125.5q100 -35 148 -105t48 -179v-75q0 -398 -521 -398q-257 0 -386.5 105.5t-130.5 318.5z" />
<glyph unicode="&#x10d6;" d="M98 523q0 145 44.5 240.5t135.5 146.5q-81 42 -129.5 113t-47.5 171q-2 356 399 356q402 0 402 -344q-1 -63 -19.5 -118t-56.5 -100q153 -42 231.5 -157.5t78.5 -310.5q-1 -258 -132.5 -389t-393.5 -131q-257 0 -384.5 133t-127.5 390zM389 1178q-1 -85 30.5 -126 t94.5 -42q57 1 90 47t32 131q0 81 -30 117t-96 38q-68 2 -94.5 -40.5t-26.5 -124.5zM391 523q0 -75 16.5 -133t47 -97t73.5 -59t96 -20q105 0 161.5 78.5t56.5 230.5q0 78 -15.5 139t-44.5 103.5t-72 64.5t-97 22q-51 0 -92 -22.5t-70 -65t-44.5 -103.5t-15.5 -138z" />
<glyph unicode="&#x10d7;" d="M27 529v29q0 498 416 498q134 0 214 -69q73 69 185 69q364 0 364 -436v-93q0 -78 -10.5 -143t-35.5 -125.5t-66 -123t-101 -135.5h-215q54 66 83 117t42.5 100t16 103.5t2.5 127.5v339q0 32 -16.5 44t-45.5 12h-95q-11 0 -17 -13t-6 -28v-298q0 -126 -15.5 -220.5 t-52 -157.5t-96 -94.5t-146.5 -31.5q-200 0 -302.5 132.5t-102.5 396.5zM312 358q0 -72 34.5 -108t84.5 -36q52 0 77.5 38t26.5 104l-1 431q0 14 -5 24.5t-12.5 17.5t-15.5 10.5t-14 3.5h-68q-28 0 -48.5 -14t-33.5 -38t-19 -56t-6 -68v-309z" />
<glyph unicode="&#x10d8;" d="M98 541q-1 252 130.5 388.5t396.5 136.5q128 0 224 -34.5t160 -101t95.5 -163.5t31.5 -222q0 -84 -9 -158.5t-33 -141t-66.5 -127.5t-110.5 -118h-229q59 76 90.5 145t45.5 135t16 130.5t2 130.5q0 72 -15 130t-42.5 98.5t-67 62.5t-88.5 22q-56 0 -100 -21.5t-74.5 -62 t-46.5 -99t-16 -132.5q0 -65 3 -128.5t18.5 -129.5t48.5 -135.5t93 -145.5h-231q-71 56 -115 116t-69 126.5t-33.5 140.5t-8.5 158z" />
<glyph unicode="&#x10d9;" d="M98 33q0 36 14 77t35 78.5t44.5 67.5t43.5 45l190 -124q-9 -14 -15.5 -26.5t-10 -28t-5.5 -35t-2 -47.5q0 -115 63 -173.5t176 -58.5q49 0 88 11t66.5 34.5t42 59.5t14.5 87v47q0 110 -36.5 169.5t-124.5 59.5h-133v220h133q85 0 123 34t38 109q0 45 -30.5 79.5t-87.5 58 t-140 35.5t-188 12v224q721 0 721 -402q1 -95 -46.5 -157t-158.5 -97q110 -42 166.5 -124t57.5 -210l-1 -58q-1 -205 -127 -303.5t-377 -98.5q-268 0 -400.5 107.5t-132.5 327.5z" />
<glyph unicode="&#x10da;" d="M98 592q0 236 126.5 355t388.5 119q257 0 390 -120.5t133 -361.5q0 -63 -22 -117t-57 -99q-8 -11 -14 -21t-10 -22.5t-6 -29t-2 -39.5q0 -11 3 -38.5t17 -69.5l-244 -1q-11 38 -20 68.5t-9 53.5q0 48 6.5 84t15.5 53q21 39 34.5 79.5t13.5 102.5q0 68 -17.5 118t-49 82.5 t-75 48.5t-94.5 16q-214 0 -214 -268q0 -195 72 -340t212 -245q331 -238 331 -402h-304q-21 85 -65 136.5t-103 68.5q-19 4 -37 6.5t-31 2.5q-74 0 -179 -110l-141 165q36 51 76.5 82t93.5 45q-113 126 -166 275t-53 323z" />
<glyph unicode="&#x10db;" d="M100 535q0 132 32.5 225.5t97 153t161.5 86.5t226 27q70 0 125 -21t97 -75v223q0 94 -60.5 140.5t-171.5 46.5q-85 -1 -133 -27t-48 -80v-98h-306v98q0 158 123.5 237.5t363.5 79.5q260 0 394.5 -97.5t134.5 -295.5v-687q0 -108 -31.5 -195t-94.5 -148.5t-157 -94.5 t-219 -33q-534 0 -534 535zM391 526q-1 -162 63.5 -237t177.5 -75q97 0 153.5 75t56.5 223q0 87 -15.5 145t-44.5 93t-71 49.5t-94 14.5q-53 0 -94.5 -15t-71 -49.5t-45 -89.5t-15.5 -134z" />
<glyph unicode="&#x10dc;" d="M98 501v657q-1 184 97.5 275.5t296.5 91.5h523v-222h-542q-40 0 -60 -26t-20 -91v-225q48 51 99.5 78.5t121.5 27.5q522 -2 522 -529q2 -538 -522 -538q-257 0 -386.5 125t-129.5 376zM393 538q0 -161 57.5 -243.5t163.5 -81.5q109 -1 168.5 77.5t59.5 239.5 q0 162 -58 242.5t-167 80.5q-105 0 -164.5 -77t-59.5 -238z" />
<glyph unicode="&#x10dd;" d="M27 468v81q0 248 99.5 377.5t308.5 129.5q51 0 99.5 -18t84.5 -53q35 35 78.5 53t93.5 18q211 0 313 -127t102 -370v-91q0 -58 -8 -116.5t-28 -117t-53.5 -117t-84.5 -117.5h-275q54 58 86.5 112.5t50.5 106.5t23.5 101t5.5 96v247q0 89 -25.5 134.5t-70.5 45.5h-63 q-15 0 -26 -11t-9 -40l2 -404h-226l-1 404q0 29 -9.5 39t-34.5 11l-55 1q-42 0 -67 -44.5t-25 -135.5v-241q0 -48 6 -98.5t25.5 -103t55 -107.5t93.5 -113h-291q-51 60 -85 119.5t-54 118t-28 116t-8 114.5z" />
<glyph unicode="&#x10de;" d="M98 449q0 26 1.5 51.5t10 51.5t27.5 54.5t54 60.5h242q-12 -33 -20 -59.5t-12.5 -51.5t-6.5 -51t-2 -59q0 -118 62.5 -175t176.5 -57q97 0 154 67.5t57 204.5t-62.5 206t-170.5 69h-123v204h144q78 0 126.5 38.5t49.5 114.5q0 54 -67.5 87t-181.5 45q-343 60 -343 295 h293q0 -76 187 -106h-2q396 -44 396 -324q0 -93 -40 -158t-125 -106q106 -60 159.5 -150t53.5 -215q0 -486 -505 -486q-533 0 -533 449z" />
<glyph unicode="&#x10df;" d="M97 22h294q-1 -107 56 -160t157 -53q60 0 107.5 13t81 39.5t51.5 66.5t18 94v841q-63 -7 -127.5 -13t-126.5 -13q-13 -2 -22.5 -2.5t-18 -1.5t-18.5 -2t-24 -3v-6q55 -25 88.5 -58.5t52 -74.5t25 -90.5t6.5 -106.5q0 -81 -33 -142.5t-105 -102.5t-186 -62t-276 -22v236 q360 0 360 93q0 219 -360 289v182l1040 140v-1083q-2 -422 -528 -422q-255 0 -383 105t-129 319z" />
<glyph unicode="&#x10e0;" d="M27 512v87q0 244 172 536q167 288 664 432l37 -220q-148 -34 -270 -101.5t-216 -179.5q63 0 117.5 -19.5t90.5 -48.5q40 35 92 51.5t128 16.5q179 0 271.5 -117.5t92.5 -346.5v-134q0 -60 -4.5 -119t-21.5 -117.5t-50 -116.5t-90 -115h-291q61 57 96.5 111.5t52.5 107 t21.5 103t4.5 99.5l2 279q0 19 -6.5 45.5t-18 50.5t-27 40.5t-32.5 16.5h-64q-20 0 -30.5 -12t-10.5 -53v-400h-226l1 405q0 20 -3.5 32t-10 18t-16 8t-21.5 2h-69q-17 0 -31.5 -16.5t-25.5 -40.5t-17.5 -50.5t-6.5 -45.5v-254q0 -56 3.5 -111t20.5 -110.5t53 -111.5 t102 -113h-275q-57 57 -93.5 125t-57.5 137t-29 134t-8 116z" />
<glyph unicode="&#x10e1;" d="M97 525v992h295v-992q0 -157 60.5 -234t172.5 -77q103 0 160 79.5t57 236.5q0 77 -33 126t-87 78q-42 23 -70 48t-44.5 51t-23 53.5t-6.5 55.5q0 78 62 158t205 162l71 -126q-44 -17 -69 -37.5t-37.5 -43t-16 -46.5t-3.5 -47q0 -12 14 -24t37 -25t52.5 -28t61.5 -31 q91 -47 136.5 -132t45.5 -197q0 -525 -512 -525q-528 0 -528 525z" />
<glyph unicode="&#x10e2;" d="M18 332q0 151 35.5 270t101.5 205.5t160 139t211 72.5l-15 324h216l-15 -327q119 -17 212.5 -69t158 -138.5t98.5 -207.5t34 -275q-1 -365 -149 -547t-445 -182q-301 0 -452 184.5t-151 550.5zM311 332q0 -523 305 -523q311 0 311 523q0 192 -50 318t-165 175l15 -494 h-213l12 493q-114 -50 -164.5 -175t-50.5 -317z" />
<glyph unicode="&#x10e3;" d="M23 830l60 258q12 -21 29.5 -45t37 -44t40.5 -33t40 -13q16 0 33 16t38 35.5t47.5 35.5t61.5 16q53 0 89.5 -33.5t71.5 -88.5q38 55 95 88.5t122 33.5q171 0 259 -106t89 -318l-1 -585q-1 -224 -122 -337t-356 -113q-513 0 -513 439q0 41 12.5 84.5t33.5 84.5t49 76.5 t59 61.5l151 -109q-25 -51 -29.5 -98t-4.5 -100q0 -115 65 -171t177 -56q185 0 185 235v723q0 25 -4 40t-14 23t-26 10.5t-40 2.5q-34 0 -53.5 -15t-29 -43.5t-12 -70.5t-2.5 -97l-11 -170h-158l-10 170q0 54 -2 96t-10.5 71t-26.5 44t-51 15q-35 0 -57.5 -18t-40 -40 t-34 -40.5t-39.5 -18.5q-36 0 -61.5 4.5t-47 16.5t-42.5 32.5t-47 50.5z" />
<glyph unicode="&#x10e4;" d="M27 585v44q0 214 103 325.5t309 111.5q68 0 123 -18t93 -51q84 69 218 69q166 0 249.5 -110t83.5 -320q0 -54 -14 -102t-38 -89t-54.5 -75t-63.5 -61q36 -24 67 -53t54 -61.5t36 -66.5t13 -68v-82q0 -105 -32.5 -177.5t-95 -117.5t-154 -65t-209.5 -20h-34 q-106 0 -194.5 23t-152.5 73t-100 129t-36 191l259 -40q0 -59 17 -92t47 -49.5t71.5 -20t90.5 -3.5h25q46 0 87 10t71.5 30t48 49t17.5 67v232h-89v189l89 1l-1 466h-146q-11 -1 -18.5 -13t-8.5 -41v-279q0 -108 -16.5 -189.5t-54.5 -136t-99.5 -82t-152.5 -27.5 q-408 -2 -408 500zM312 425q0 -41 10 -68.5t27.5 -44.5t41 -24.5t50.5 -7.5q23 0 42 11t32.5 30.5t20.5 46t7 57.5v377q0 25 -12 37t-28 13l-111 1q-16 0 -30.5 -11t-25.5 -31.5t-17.5 -48.5t-6.5 -62v-275z" />
<glyph unicode="&#x10e5;" d="M98 38q0 35 6.5 67t22 63.5t41 64t62.5 67.5l209 -65q-24 -51 -33 -100.5t-9 -98.5q0 -115 63 -171t181 -56q49 0 90 17t70 52.5t45.5 89t16.5 126.5v280q0 119 -12.5 209t-41.5 150t-77.5 90.5t-121.5 30.5q-67 0 -106 -28t-38 -87q0 -26 2.5 -48t7 -42t11.5 -39t18 -39 l-267 -87q-15 34 -25.5 64t-17 59t-9 61t-2.5 71q0 328 431 328q31 0 68.5 -10.5t72.5 -25t63.5 -30t42.5 -24.5v59t0.5 53.5t0.5 54v60.5v313h272v-1415q0 -504 -491 -504q-546 0 -546 440z" />
<glyph unicode="&#x10e6;" d="M27 476v76q0 253 97.5 383.5t293.5 130.5q62 0 112 -18t88 -53q39 35 92.5 53t123.5 18q186 0 279 -127.5t93 -374.5v-66q0 -62 -10 -116.5t-31.5 -105t-55 -98t-81.5 -96.5l-253 -1q37 51 65 93.5t46.5 80t27.5 72.5t9 72v330q0 40 -5 64.5t-15 38t-23.5 17.5t-30.5 4 h-87q-14 0 -23 -8.5t-9 -38.5v-418h-226v416q0 25 -8 37t-22 12h-66q-22 0 -40.5 -4t-32 -17.5t-21.5 -38t-8 -64.5v-223q0 -167 77.5 -285t219.5 -189q171 -86 277 -194t148 -241l-296 1q-6 37 -21.5 67.5t-37 54t-47.5 40.5t-54 27q-41 15 -72 15q-34 0 -81 -28.5 t-110 -88.5l-115 163q26 38 52.5 63t55.5 38q-275 252 -275 527z" />
<glyph unicode="&#x10e7;" d="M100 54h311q0 -245 224 -246q100 1 154 47.5t54 141.5v253q-34 -28 -62 -47.5t-54 -32t-53.5 -18.5t-60.5 -6q-128 0 -224.5 23.5t-160.5 77t-96 139t-32 208.5q0 66 11 123t39 110t76.5 104.5t122.5 105.5h311q-61 -61 -103 -108.5t-69.5 -85.5t-43 -69.5t-23.5 -60.5 t-9.5 -57.5t-1.5 -61.5q0 -71 12.5 -115.5t38 -70t63.5 -35t89 -9.5q113 0 171.5 45t58.5 138v483h293v-1037q0 -395 -501 -395q-535 0 -535 456z" />
<glyph unicode="&#x10e8;" d="M3 1128q0 422 280 422q90 0 155 -42.5t102 -121.5q35 81 96.5 122.5t143.5 41.5q364 0 362 -342v-718q0 -490 -481 -490q-278 0 -416 134t-139 401q0 132 32 224t96 149t160.5 83t225.5 26q67 -1 121 -26.5t99 -73.5v262q0 82 -24.5 122.5t-79.5 40.5q-37 0 -58 -4.5 t-32 -13t-14 -21.5t-3 -31v-110h-167v112q0 17 -2.5 30t-12 21.5t-27 13t-47.5 4.5q-31 0 -49.5 -13.5t-28.5 -40t-13 -67t-3 -94.5h-276zM398 530q0 -80 18.5 -139.5t53.5 -98.5t85 -58.5t112 -19.5q86 0 133 77.5t48 234.5q0 83 -16 136.5t-46 85t-72.5 43.5t-96.5 12 q-52 0 -92.5 -12.5t-69 -43.5t-43 -83.5t-14.5 -133.5z" />
<glyph unicode="&#x10e9;" d="M98 0v1183q0 182 108 274.5t321 92.5q221 0 332 -82t111 -250q0 -53 -25 -104t-66 -114q52 -28 98.5 -73t81.5 -103.5t56 -128.5t21 -149q-1 -162 -66.5 -298t-196.5 -248h-316q136 129 210.5 267t74.5 285q0 79 -17 135.5t-49.5 93.5t-78 54.5t-102.5 17.5 q-99 0 -151 -68t-52 -190v-595h-294zM392 955q24 30 48.5 48.5t52.5 29t63 14t80 3.5l56 -1l14 142q0 48 -12 77.5t-35 46t-56 22.5t-73 6q-66 0 -102 -42.5t-36 -125.5v-220z" />
<glyph unicode="&#x10ea;" d="M57 307v92q0 78 11.5 161t36.5 171t65 181.5t98 191.5l231 -121q-42 -65 -70 -130t-45.5 -131t-25.5 -132.5t-8 -133.5v-149q1 -498 274 -498q81 0 133 18t81.5 57.5t40.5 101.5t11 150q1 168 -114 168h-232v206h225q97 0 96 135q1 43 -27.5 73.5t-83.5 47.5 q-175 56 -177 282h289q0 -66 21.5 -107t62.5 -57q93 -34 145 -93t52 -142q0 -70 -40 -130.5t-112 -109.5q89 -64 134.5 -140t45.5 -164q0 -126 -29.5 -221t-94.5 -158.5t-170.5 -95t-257.5 -31.5q-284 0 -425 177.5t-141 530.5z" />
<glyph unicode="&#x10eb;" d="M98 519q0 548 513 548q36 0 71.5 -6.5t68.5 -21t61.5 -37t49.5 -55.5v570l274 -1v-1010q1 -263 -130 -384.5t-395 -121.5q-513 0 -513 519zM407 520q0 -306 202 -306q55 0 98 16.5t73 52.5t46 92t16 135q0 93 -16 158.5t-46 106.5t-73 60t-97 19q-203 0 -203 -334z" />
<glyph unicode="&#x10ec;" d="M94 540v708q0 74 25 130.5t69 94.5t105 57.5t133 19.5q41 0 81 -10.5t75.5 -31t64.5 -51t49 -71.5q38 81 102.5 122.5t154.5 41.5q280 0 280 -422h-276q0 54 -3 94.5t-13 67t-28.5 40t-49.5 13.5q-30 0 -47.5 -4.5t-27 -13t-12 -21.5t-2.5 -30v-112h-167v110q0 18 -3 31 t-14 21.5t-32 13t-58 4.5q-27 0 -48.5 -4t-36 -16.5t-22 -37t-7.5 -65.5v-302q43 43 103 71t127 29q129 0 225.5 -29t160.5 -90t96 -156t32 -227q-1 -267 -139 -391t-416 -124q-120 0 -210 38.5t-150.5 109t-90.5 170t-30 222.5zM388 526q0 -78 16 -136.5t43 -98t63.5 -59 t79.5 -19.5q62 0 109 16.5t78 52t46 92t15 136.5q0 81 -14.5 136.5t-43 90.5t-69 50.5t-92.5 15.5q-54 0 -96.5 -12t-72.5 -43.5t-46 -85t-16 -136.5z" />
<glyph unicode="&#x10ed;" d="M98 20q0 108 130 252l213 -141q-13 -12 -22.5 -28t-15.5 -34t-8.5 -36t-2.5 -33q0 -99 58.5 -145.5t162.5 -47.5q53 0 96 13t72.5 39.5t45.5 66t15 92.5q0 68 -48 123t-128 97q-52 48 -82.5 91t-42.5 85q-5 -2 -11 -2t-11 -2q-383 0 -383 348q0 354 386 354l10 -1v406 h279v-508q34 -27 58.5 -61.5t31.5 -69.5h189v-232h-192q-8 -32 -28.5 -67t-50.5 -60l-1 -52q2 -47 145 -131q85 -57 127.5 -135.5t43.5 -182.5q0 -420 -521 -420q-517 0 -515 422zM381 760q0 -38 14 -71.5t36 -58t49 -38.5t52 -14q27 0 55.5 14t51.5 38.5t37.5 58t14.5 71.5 q0 37 -13.5 69t-35.5 55.5t-48.5 37t-51.5 13.5q-28 0 -56.5 -13.5t-52 -37t-38 -55.5t-14.5 -69z" />
<glyph unicode="&#x10ee;" d="M97 1517h292v-563q48 60 103.5 86.5t126.5 26.5q516 -2 516 -530q-1 -269 -129.5 -403t-386.5 -134q-131 0 -228.5 38t-162.5 110t-97.5 176.5t-32.5 238.5zM392 530q0 -160 60 -238t168 -78q103 0 162.5 77.5t59.5 238.5q0 162 -60.5 242.5t-164.5 80.5 q-108 0 -166.5 -80t-58.5 -243z" />
<glyph unicode="&#x10ef;" d="M97 37q0 81 32 164.5t97 168.5l209 -136q-26 -50 -34.5 -96.5t-8.5 -97.5q0 -115 56.5 -173.5t158.5 -57.5q109 0 172 52.5t63 163.5q1 85 -47 150t-126 104q-98 67 -147.5 135t-50.5 140l20 187l-356 53v259l356 -101l-20 297h267l-20 -345l376 -79v-260l-376 127 l20 -138q0 -18 50.5 -56.5t150.5 -100.5q96 -72 146 -163.5t51 -215.5q0 -205 -132.5 -312.5t-396.5 -107.5q-510 0 -510 439z" />
<glyph unicode="&#x10f0;" d="M98 432v134h293v-134q1 -112 56.5 -165t157.5 -53q108 0 172 37t64 119q0 43 -5.5 68t-14 38.5t-20 18t-23.5 4.5h-279v219h280q10 0 20.5 2t19.5 9.5t15 23t6 42.5q0 25 -5.5 39t-14.5 21t-20 8.5t-21 1.5h-280v221h278q8 0 17.5 2t18 9t14.5 19t6 33q0 24 -16.5 39.5 t-46.5 26t-72 17t-93 12.5q-141 21 -212.5 96.5t-71.5 209.5h228q0 -24 24.5 -44t64.5 -35.5t89.5 -25.5t100.5 -15q286 -29 286 -262q0 -61 -29 -108t-88 -78q61 -33 94.5 -81.5t33.5 -108.5q0 -118 -133 -188q144 -98 144 -223q0 -190 -128.5 -285.5t-387.5 -95.5 q-522 0 -522 432z" />
<glyph unicode="&#x2000;" horiz-adv-x="832" />
<glyph unicode="&#x2001;" horiz-adv-x="1665" />
<glyph unicode="&#x2002;" horiz-adv-x="832" />
<glyph unicode="&#x2003;" horiz-adv-x="1665" />
<glyph unicode="&#x2004;" horiz-adv-x="555" />
<glyph unicode="&#x2005;" horiz-adv-x="416" />
<glyph unicode="&#x2006;" horiz-adv-x="277" />
<glyph unicode="&#x2007;" horiz-adv-x="277" />
<glyph unicode="&#x2008;" horiz-adv-x="208" />
<glyph unicode="&#x2009;" horiz-adv-x="333" />
<glyph unicode="&#x200a;" horiz-adv-x="92" />
<glyph unicode="&#x2010;" d="M301 444v291h631v-291h-631z" />
<glyph unicode="&#x2011;" d="M301 444v291h631v-291h-631z" />
<glyph unicode="&#x2012;" d="M301 444v291h631v-291h-631z" />
<glyph unicode="&#x2013;" d="M0 444v246h1233v-246h-1233z" />
<glyph unicode="&#x2014;" d="M0 444v246h1233v-246h-1233z" />
<glyph unicode="&#x2018;" d="M432 903v271l197 382h215l-99 -382v-271h-313z" />
<glyph unicode="&#x2019;" d="M432 903l98 383v270h314v-270l-197 -383h-215z" />
<glyph unicode="&#x201c;" d="M152 903v271l196 382h215l-98 -382v-271h-313zM672 903v271l196 382h213l-96 -382v-271h-313z" />
<glyph unicode="&#x201d;" d="M150 903l98 383v270h313v-270l-196 -383h-215zM670 903l98 383v270h313v-270l-196 -383h-215z" />
<glyph unicode="&#x2020;" d="M156 883v223h331v387h256v-387h332v-223h-332v-1080h-256v1080h-331z" />
<glyph unicode="&#x2021;" d="M156 190v224h331v469h-331v223h331v387h256v-387h332v-223h-332v-469h332v-224h-332v-387h-256v387h-331z" />
<glyph unicode="&#x2022;" d="M256 762q0 73 27.5 138.5t78.5 115.5q54 51 118 77.5t136 26.5q73 0 138.5 -27t115.5 -77q53 -52 80 -117t27 -137q0 -73 -27.5 -138.5t-79.5 -117.5q-51 -52 -117 -79.5t-139 -27.5q-72 0 -137 27.5t-117 79.5q-50 51 -77 116.5t-27 139.5z" />
<glyph unicode="&#x2026;" d="M57 0v367h295v-367h-295zM469 0v367h295v-367h-295zM881 0v367h295v-367h-295z" />
<glyph unicode="&#x202f;" horiz-adv-x="333" />
<glyph unicode="&#x205f;" horiz-adv-x="416" />
<glyph unicode="&#x20ac;" d="M6 483l84 187h96q-1 14 -1.5 29.5t-0.5 45.5q0 29 0.5 45t1.5 31h-180l84 189h119q44 250 190 380t381 130q83 0 156 -18t141 -54v-328q-74 78 -144 114t-147 36q-107 0 -177 -65.5t-101 -194.5h442l-84 -189h-382q-2 -16 -2.5 -34t-0.5 -54q0 -14 0.5 -30t1.5 -33h316 l-84 -187h-207q24 -127 95.5 -194.5t180.5 -67.5q78 0 148.5 36t144.5 114v-328q-66 -36 -139.5 -54t-157.5 -18q-235 0 -381 131t-190 381h-203z" />
<glyph unicode="&#x2122;" d="M0 1360v133h438v-133h-141v-445h-156v445h-141zM522 915v578h207l100 -227l89 227h208v-578h-153v437l-107 -256h-75l-117 256v-437h-152z" />
<glyph unicode="&#x25ca;" d="M117 592l499 1061l500 -1061l-500 -1069zM231 592l385 -825l385 825l-385 817z" />
<glyph unicode="&#x25fc;" horiz-adv-x="1120" d="M0 1120h1120v-1120h-1120v1120z" />
<glyph unicode="&#xfb01;" d="M12 895v225h189v78q0 202 83.5 280t311.5 78h80v-225h-68q-66 0 -89.5 -24t-24.5 -88v-99h604v-1120h-293v895h-311v-895h-293v895h-189zM805 1264v292h293v-292h-293z" />
<glyph unicode="&#xfb02;" d="M12 895v225h189v78q0 202 83.5 280t311.5 78h502v-1556h-293v1331h-197q-66 0 -89.5 -24t-24.5 -88v-99h188v-225h-188v-895h-293v895h-189z" />
</font>
</defs>
</svg>
